<svg width="18" height="16" viewBox="0 0 18 16" fill="none" xmlns="http://www.w3.org/2000/svg">
<path d="M14.0678 12.9805C13.4467 12.261 12.6431 11.6774 11.7204 11.2759C10.7977 10.8744 9.78098 10.6658 8.75044 10.6666C7.71991 10.6658 6.70323 10.8744 5.78051 11.2759C4.85778 11.6774 4.05421 12.261 3.43311 12.9805M14.0678 12.9805C15.2798 12.0372 16.1345 10.7938 16.5204 9.4152C16.9062 8.0366 16.804 6.58793 16.2273 5.26132C15.6506 3.93472 14.6266 2.79285 13.2912 1.98715C11.9558 1.18146 10.3721 0.75 8.75 0.75C7.12792 0.75 5.54416 1.18146 4.20876 1.98715C2.87336 2.79285 1.8494 3.93472 1.2727 5.26132C0.695992 6.58793 0.59378 8.0366 0.979618 9.4152C1.36546 10.7938 2.22111 12.0372 3.43311 12.9805M14.0678 12.9805C12.6047 14.1225 10.711 14.7524 8.75044 14.75C6.78958 14.7526 4.89643 14.1226 3.43311 12.9805M11.4171 5.99985C11.4171 6.6187 11.1362 7.2122 10.6361 7.6498C10.136 8.08739 9.45769 8.33322 8.75044 8.33322C8.0432 8.33322 7.36492 8.08739 6.86483 7.6498C6.36473 7.2122 6.08378 6.6187 6.08378 5.99985C6.08378 5.38101 6.36473 4.7875 6.86483 4.34991C7.36492 3.91232 8.0432 3.66648 8.75044 3.66648C9.45769 3.66648 10.136 3.91232 10.6361 4.34991C11.1362 4.7875 11.4171 5.38101 11.4171 5.99985Z" stroke="white" stroke-opacity="0.63" stroke-width="1.5" stroke-linecap="round" stroke-linejoin="round"/>
</svg>
